{
  "source": "C:\\Users\\Peter\\Desktop\\stuff\\MIUN\\quantitative_research\\video_compression\\videos\\BVI-HD\\BVI-HD_CDVL_videos\\ORIG\\TreeGrassFamily_1920x1080_30fps.mp4",
  "output": "C:\\Users\\Peter\\Desktop\\stuff\\MIUN\\quantitative_research\\video_compression\\compressed_videos\\BVI-HD\\h264\\8\\TreeGrassFamily_1920x1080_30fps_h264.mp4",
  "codec": "h264",
  "ok": "Input #0, mov,mp4,m4a,3gp,3g2,mj2, from 'C:\\Users\\Peter\\Desktop\\stuff\\MIUN\\quantitative_research\\video_compression\\videos\\BVI-HD\\BVI-HD_CDVL_videos\\ORIG\\TreeGrassFamily_1920x1080_30fps.mp4':\n  Metadata:\n    major_brand     : isom\n    minor_version   : 512\n    compatible_brands: isomiso2avc1mp41\n    encoder         : Lavf54.28.101\n  Duration: 00:00:05.00, start: 0.000000, bitrate: 331787 kb/s\n  Stream #0:0[0x1](und): Video: h264 (High 4:4:4 Predictive) (avc1 / 0x31637661), yuv420p(progressive), 1920x1080, 331784 kb/s, 30 fps, 30 tbr, 30 tbn (default)\n    Metadata:\n      handler_name    : VideoHandler\n      vendor_id       : [0][0][0][0]\n[out#0/mp4 @ 000002b3bae7f040] Codec AVOption b:a (set bitrate (in bits/s)) has not been used for any stream. The most likely reason is either wrong type (e.g. a video option with no video streams) or that it is a private option of some decoder which was not actually used for any stream.\nStream mapping:\n  Stream #0:0 -> #0:0 (h264 (native) -> h264 (libx264))\nPress [q] to stop, [?] for help\n[libx264 @ 000002b3baf375c0] using cpu capabilities: MMX2 SSE2Fast SSSE3 SSE4.2 AVX FMA3 BMI2 AVX2\n[libx264 @ 000002b3baf375c0] profile High, level 5.0, 4:2:0, 8-bit\n[libx264 @ 000002b3baf375c0] 264 - core 165 r3222 b35605a - H.264/MPEG-4 AVC codec - Copyleft 2003-2025 - http://www.videolan.org/x264.html - options: cabac=1 ref=5 deblock=1:0:0 analyse=0x3:0x113 me=hex subme=8 psy=1 psy_rd=1.00:0.00 mixed_ref=1 me_range=16 chroma_me=1 trellis=2 8x8dct=1 cqm=0 deadzone=21,11 fast_pskip=1 chroma_qp_offset=-2 threads=18 lookahead_threads=3 sliced_threads=0 nr=0 decimate=1 interlaced=0 bluray_compat=0 constrained_intra=0 bframes=3 b_pyramid=2 b_adapt=1 b_bias=0 direct=3 weightb=1 open_gop=0 weightp=2 keyint=250 keyint_min=25 scenecut=40 intra_refresh=0 rc_lookahead=50 rc=cbr mbtree=1 bitrate=8000 ratetol=1.0 qcomp=0.60 qpmin=0 qpmax=69 qpstep=4 vbv_maxrate=8000 vbv_bufsize=8000 nal_hrd=none filler=0 ip_ratio=1.40 aq=1:1.00\nOutput #0, mp4, to 'C:\\Users\\Peter\\Desktop\\stuff\\MIUN\\quantitative_research\\video_compression\\compressed_videos\\BVI-HD\\h264\\8\\TreeGrassFamily_1920x1080_30fps_h264.mp4':\n  Metadata:\n    major_brand     : isom\n    minor_version   : 512\n    compatible_brands: isomiso2avc1mp41\n    encoder         : Lavf62.3.100\n  Stream #0:0(und): Video: h264 (avc1 / 0x31637661), yuv420p(tv, progressive), 1920x1080, q=2-31, 8000 kb/s, 30 fps, 15360 tbn (default)\n    Metadata:\n      encoder         : Lavc62.11.100 libx264\n      handler_name    : VideoHandler\n      vendor_id       : [0][0][0][0]\n    Side data:\n      cpb: bitrate max/min/avg: 8000000/0/8000000 buffer size: 8000000 vbv_delay: N/A\nframe=    0 fps=0.0 q=0.0 size=       0KiB time=N/A bitrate=N/A speed=N/A elapsed=0:00:00.52    \nframe=    0 fps=0.0 q=0.0 size=       0KiB time=N/A bitrate=N/A speed=N/A elapsed=0:00:01.06    \nframe=    0 fps=0.0 q=0.0 size=       0KiB time=N/A bitrate=N/A speed=N/A elapsed=0:00:01.58    \nframe=    1 fps=0.5 q=37.0 size=       0KiB time=-00:00:00.03 bitrate=N/A speed=N/A elapsed=0:00:02.11    \nframe=   13 fps=4.9 q=34.0 size=     256KiB time=00:00:00.36 bitrate=5720.5kbits/s speed=0.137x elapsed=0:00:02.67    \nframe=   25 fps=7.8 q=33.0 size=     512KiB time=00:00:00.76 bitrate=5471.3kbits/s speed=0.241x elapsed=0:00:03.18    \nframe=   45 fps= 12 q=34.0 size=    1024KiB time=00:00:01.30 bitrate=6453.1kbits/s speed=0.351x elapsed=0:00:03.70    \nframe=   53 fps= 12 q=34.0 size=    1280KiB time=00:00:01.70 bitrate=6168.3kbits/s speed=0.395x elapsed=0:00:04.30    \nframe=   69 fps= 14 q=34.0 size=    1792KiB time=00:00:02.23 bitrate=6573.3kbits/s speed=0.458x elapsed=0:00:04.87    \nframe=   89 fps= 16 q=34.0 size=    2560KiB time=00:00:02.90 bitrate=7231.7kbits/s speed=0.537x elapsed=0:00:05.39    \nframe=  109 fps= 18 q=34.0 size=    3328KiB time=00:00:03.56 bitrate=7643.9kbits/s speed=0.603x elapsed=0:00:05.91    \nframe=  129 fps= 20 q=33.0 size=    3840KiB time=00:00:04.23 bitrate=7430.9kbits/s speed=0.659x elapsed=0:00:06.42    \n[mp4 @ 000002b3ba159a40] Starting second pass: moving the moov atom to the beginning of the file\n[out#0/mp4 @ 000002b3bae7f040] video:4772KiB audio:0KiB subtitle:0KiB other streams:0KiB global headers:0KiB muxing overhead: 0.055483%\nframe=  150 fps= 22 q=-1.0 Lsize=    4774KiB time=00:00:04.93 bitrate=7927.9kbits/s speed=0.709x elapsed=0:00:06.95    \n[libx264 @ 000002b3baf375c0] frame I:1     Avg QP:31.57  size:145197\n[libx264 @ 000002b3baf375c0] frame P:38    Avg QP:33.33  size: 65806\n[libx264 @ 000002b3baf375c0] frame B:111   Avg QP:36.70  size: 20176\n[libx264 @ 000002b3baf375c0] consecutive B-frames:  1.3%  0.0%  0.0% 98.7%\n[libx264 @ 000002b3baf375c0] mb I  I16..4:  2.0% 92.0%  6.0%\n[libx264 @ 000002b3baf375c0] mb P  I16..4:  0.0%  8.2%  0.2%  P16..4: 38.5% 24.4% 10.6%  0.0%  0.0%    skip:18.1%\n[libx264 @ 000002b3baf375c0] mb B  I16..4:  0.0%  0.6%  0.0%  B16..8: 30.8%  8.3%  2.9%  direct: 7.8%  skip:49.5%  L0:39.9% L1:47.8% BI:12.3%\n[libx264 @ 000002b3baf375c0] 8x8 transform intra:96.2% inter:75.5%\n[libx264 @ 000002b3baf375c0] direct mvs  spatial:91.0% temporal:9.0%\n[libx264 @ 000002b3baf375c0] coded y,uvDC,uvAC intra: 90.1% 45.1% 5.9% inter: 25.2% 4.8% 0.0%\n[libx264 @ 000002b3baf375c0] i16 v,h,dc,p: 27% 12% 12% 50%\n[libx264 @ 000002b3baf375c0] i8 v,h,dc,ddl,ddr,vr,hd,vl,hu:  9%  3%  4% 16% 11% 11%  9% 26% 11%\n[libx264 @ 000002b3baf375c0] i4 v,h,dc,ddl,ddr,vr,hd,vl,hu:  7%  3%  3% 15% 13% 14% 11% 21% 14%\n[libx264 @ 000002b3baf375c0] i8c dc,h,v,p: 60% 17% 15%  9%\n[libx264 @ 000002b3baf375c0] Weighted P-Frames: Y:0.0% UV:0.0%\n[libx264 @ 000002b3baf375c0] ref P L0: 44.9% 11.1% 22.8%  8.7% 12.5%\n[libx264 @ 000002b3baf375c0] ref B L0: 81.9% 11.3%  4.3%  2.5%\n[libx264 @ 000002b3baf375c0] ref B L1: 97.0%  3.0%\n[libx264 @ 000002b3baf375c0] kb/s:7816.62\n",
  "seconds": 7.261600971221924,
  "probe_out": {}
}